<?xml version="1.0" encoding="utf-8"?>
<!-- Generator: Adobe Illustrator 21.1.0, SVG Export Plug-In . SVG Version: 6.00 Build 0)  -->
<svg version="1.1"
	 id="Layer_1" xmlns:cc="http://creativecommons.org/ns#" xmlns:dc="http://purl.org/dc/elements/1.1/" xmlns:inkscape="http://www.inkscape.org/namespaces/inkscape" xmlns:rdf="http://www.w3.org/1999/02/22-rdf-syntax-ns#" xmlns:sodipodi="http://sodipodi.sourceforge.net/DTD/sodipodi-0.dtd" xmlns:svg="http://www.w3.org/2000/svg"
	 xmlns="http://www.w3.org/2000/svg" xmlns:xlink="http://www.w3.org/1999/xlink" x="0px" y="0px" viewBox="0 0 252 303"
	 style="enable-background:new 0 0 252 303;" xml:space="preserve">
<style type="text/css">
	.st0{fill:#FFFFFF;}
</style>
<g transform="translate(0.000000,300.000000) scale(0.100000,-0.100000)">
	<path class="st0" d="M1319.9,2725.1c-15.3-19.7-40.6-57-57-82.2c-48.2-75.6-86.6-60.3-57,24.1c23,68,21.9,71.2-20.8,71.2
		c-38.4,0-68-23-139.2-108.5c-35.1-40.6-60.3-46-48.2-8.8c20.8,66.9,19.7,73.4-5.5,73.4c-13.2,0-41.6-14.2-62.5-32.9
		c-19.7-17.5-43.8-32.9-52.6-32.9s-36.2-21.9-61.4-49.3c-25.2-27.4-54.8-49.3-65.8-49.3c-28.5,0-104.1-84.4-138.1-153.4
		c-16.4-32.9-42.7-80-59.2-104.1s-46-75.6-65.8-115.1c-31.8-61.4-37.3-86.6-43.8-186.3c-4.4-65.8-15.3-133.7-25.2-158.9
		c-16.4-38.4-17.5-52.6-5.5-111.8c11-55.9,11-75.6-2.2-115.1c-16.4-51.5-18.6-165.5-7.7-485.5c6.6-192.9,11-225.8,35.1-256.5
		c5.5-7.7,12.1-47.1,13.2-87.7c3.3-128.2,26.3-187.4,73.4-187.4c18.6,0,32.9-14.2,55.9-59.2c17.5-32.9,46-73.4,62.5-89.9
		c17.5-16.4,31.8-40.6,31.8-53.7c0-31.8,37.3-64.7,64.7-57c12.1,3.3,27.4-1.1,35.1-9.9c17.5-20.8,53.7-19.7,53.7,2.2
		c0,14.2,6.6,16.4,29.6,9.9c29.6-6.6,36.2-13.2,59.2-52.6c14.2-25.2,50.4-24.1,64.7,3.3c8.8,15.3,18.6,20.8,32.9,16.4
		c11-3.3,38.4,1.1,61.4,11c29.6,12.1,42.7,13.2,49.3,4.4c13.2-21.9,53.7,1.1,61.4,35.1c5.5,29.6,8.8,30.7,48.2,25.2
		c39.5-6.6,41.6-5.5,58.1,32.9c8.8,21.9,20.8,39.5,27.4,39.5c5.5,0,15.3,14.2,21.9,32.9c14.2,42.7,39.5,44.9,29.6,2.2
		c-4.4-16.4-9.9-38.4-13.2-48.2c-7.7-24.1,26.3-27.4,35.1-3.3c4.4,8.8,13.2,16.4,21.9,16.4c8.8,0,20.8,9.9,28.5,21.9
		c7.7,12.1,20.8,21.9,28.5,21.9s19.7,13.2,26.3,30.7c7.7,16.4,24.1,40.6,38.4,52.6c13.2,13.2,27.4,41.6,30.7,62.5
		c5.5,25.2,15.3,40.6,28.5,43.8c14.2,3.3,20.8,15.3,20.8,34c0,17.5,6.6,28.5,16.4,28.5c8.8,0,16.4-9.9,16.4-21.9
		c0-37.3,31.8-25.2,39.5,15.3c4.4,27.4,13.2,39.5,30.7,41.6c16.4,2.2,23,11,23,32.9c1.1,16.4,4.4,32.9,8.8,37.3
		c4.4,4.4,7.7,17.5,7.7,28.5c0,12.1,12.1,47.1,26.3,77.8c29.6,64.7,44.9,115.1,55.9,176.5c11,66.9,46,105.2,93.2,105.2
		c47.1,0,66.9,17.5,98.6,91c43.8,98.6,68,365,39.5,436.2c-9.9,24.1-17.5,58.1-17.5,76.7c0,38.4-25.2,92.1-48.2,100.8
		c-12.1,4.4-17.5,44.9-23,181.9c-6.6,130.4-12.1,176.5-21.9,176.5c-21.9,0-26.3,26.3-9.9,55.9c21.9,39.5,18.6,64.7-7.7,64.7
		c-24.1,0-24.1,7.7-4.4,73.4c12.1,36.2-20.8,44.9-60.3,15.3l-31.8-23l-3.3,41.6c-4.4,48.2-36.2,60.3-69,24.1
		c-23-26.3-71.2-29.6-71.2-5.5c0,26.3-43.8,18.6-68-11c-12.1-15.3-26.3-27.4-31.8-27.4c-13.2,0-13.2,51.5,1.1,60.3
		c17.5,11,13.2,24.1-24.1,61.4c-29.6,28.5-36.2,44.9-36.2,80v44.9l-49.3,3.3c-41.6,2.2-54.8-1.1-76.7-25.2
		c-34-36.2-41.6-35.1-39.5,7.7C1382.4,2767.9,1352.8,2771.2,1319.9,2725.1z M1518.3,2609c0-28.5-29.6-68-52.6-68
		c-36.2,0-43.8,31.8-12.1,55.9C1481,2617.7,1518.3,2624.3,1518.3,2609z M1327.6,2524.6c-2.2-5.5-16.4-9.9-30.7-8.8
		c-27.4,1.1-28.5-1.1-37.3-82.2l-9.9-84.4l-40.6-3.3c-51.5-4.4-52.6,8.8-8.8,77.8c35.1,55.9,40.6,80,19.7,86.6
		c-9.9,3.3-3.3,16.4,17.5,39.5l32.9,34l29.6-24.1C1316.6,2546.5,1328.7,2531.2,1327.6,2524.6z M1014.1,2508.1
		c0-12.1-7.7-21.9-16.4-21.9c-16.4,0-23,23-8.8,36.2C1002.1,2536.6,1014.1,2530.1,1014.1,2508.1z M1375.8,2458.8
		c0-19.7-5.5-27.4-21.9-27.4c-21.9,0-30.7,30.7-14.2,47.1C1356.1,2496.1,1375.8,2485.1,1375.8,2458.8z M1496.4,2475.3
		c0-19.7-44.9-100.8-81.1-148c-51.5-65.8-65.8-73.4-75.6-39.5c-4.4,18.6,30.7,83.3,89.9,163.3
		C1454.7,2484,1496.4,2499.4,1496.4,2475.3z M1134.7,2445.7c0-25.2-32.9-46-73.4-47.1c-19.7,0-36.2,2.2-36.2,4.4
		c0,20.8,17.5,39.5,38.4,39.5c13.2,0,30.7,7.7,38.4,16.4C1117.2,2477.5,1134.7,2470.9,1134.7,2445.7z M734.7,2354.7
		c-3.3-5.5-14.2-11-23-11s-13.2,5.5-9.9,11c3.3,6.6,14.2,11,23,11S738,2361.3,734.7,2354.7z M1540.2,2320.7
		c0-6.6-5.5-21.9-13.2-35.1c-12.1-23-12.1-23-19.7-2.2c-8.8,21.9,5.5,49.3,23,49.3C1535.8,2332.8,1540.2,2327.3,1540.2,2320.7z
		 M1025.1,2272.5c0-8.8-4.4-16.4-11-16.4c-5.5,0-11,7.7-11,16.4s5.5,16.4,11,16.4C1020.7,2289,1025.1,2281.3,1025.1,2272.5z
		 M1869,2229.8c0-3.3-4.4-8.8-11-12.1c-5.5-3.3-11-1.1-11,4.4c0,6.6,5.5,12.1,11,12.1C1864.6,2234.2,1869,2232,1869,2229.8z
		 M1781.3,2188.1c0-7.7-12.1-25.2-26.3-40.6c-19.7-21.9-28.5-46-34-95.3c-3.3-37.3-11-84.4-16.4-104.1
		c-16.4-54.8,11-163.3,44.9-186.3c5.5-3.3,3.3-20.8-3.3-40.6l-13.2-35.1h-152.3c-140.3,0-178.6-4.4-299.2-35.1
		c-37.3-8.8-50.4-7.7-73.4,7.7c-21.9,13.2-51.5,17.5-124.9,17.5c-52.6-1.1-145.8,1.1-206,5.5c-60.3,3.3-141.4,1.1-180.8-5.5
		c-39.5-5.5-98.6-14.2-132.6-17.5l-62.5-6.6l-4.4,52.6c-5.5,65.8,21.9,164.4,72.3,266.3c21.9,42.7,39.5,86.6,39.5,97.5
		c0,14.2,16.4,26.3,52.6,39.5c28.5,11,55.9,24.1,62.5,28.5c5.5,5.5,19.7,9.9,30.7,9.9c12.1,0,27.4,7.7,35.1,18.6
		c21.9,29.6,41.6,6.6,34-41.6l-6.6-41.6l49.3-6.6c26.3-4.4,54.8-14.2,61.4-23c19.7-23,49.3-18.6,69,12.1
		c9.9,15.3,27.4,27.4,38.4,27.4c35.1,0,115.1,39.5,130.4,64.7c18.6,30.7,35.1,29.6,35.1-4.4c0-38.4,36.2-36.2,65.8,5.5
		c35.1,49.3,48.2,41.6,39.5-23c-11-84.4,17.5-108.5,75.6-62.5c20.8,15.3,47.1,24.1,84.4,25.2c29.6,1.1,59.2,7.7,65.8,14.2
		c16.4,16.4,51.5,16.4,89.9,0c28.5-13.2,29.6-17.5,26.3-78.9c-2.2-39.5,1.1-66.9,8.8-69c6.6-2.2,12.1,16.4,14.2,46
		c1.1,28.5,6.6,63.6,12.1,77.8c6.6,15.3,11,38.4,11,50.4c0,13.2,7.7,32.9,18.6,43.8C1732,2203.5,1781.3,2208.9,1781.3,2188.1z
		 M1507.3,2162.9c0-8.8-4.4-16.4-11-16.4c-5.5,0-11,7.7-11,16.4c0,8.8,5.5,16.4,11,16.4C1502.9,2179.4,1507.3,2171.7,1507.3,2162.9z
		 M1823,1985.4c3.3-54.8-18.6-123.8-40.6-123.8c-19.7,0-20.8,110.7-2.2,184.1c1.1,2.2,9.9,2.2,20.8,0
		C1815.3,2043.5,1820.8,2029.2,1823,1985.4z M1939.1,1990.8c11-42.7,7.7-52.6-20.8-52.6c-30.7,0-32.9,6.6-16.4,48.2
		C1915,2021.5,1930.4,2022.6,1939.1,1990.8z M1918.3,1850.6c6.6-28.5,12.1-32.9,43.8-32.9c31.8,0,38.4-4.4,48.2-35.1
		c5.5-19.7,14.2-59.2,17.5-86.6c8.8-57-12.1-325.5-27.4-366.1s-37.3-35.1-28.5,6.6c3.3,19.7,2.2,40.6-4.4,48.2
		c-6.6,7.7-6.6,25.2,1.1,50.4c12.1,42.7,2.2,247.7-13.2,257.6c-5.5,3.3-19.7-5.5-31.8-19.7c-16.4-19.7-20.8-42.7-21.9-104.1
		c0-42.7,5.5-82.2,11-85.5c16.4-11,13.2-118.4-5.5-155.6c-16.4-31.8-68-75.6-77.8-65.8c-2.2,2.2,5.5,42.7,17.5,89.9
		c27.4,107.4,27.4,104.1-5.5,104.1c-31.8,0-31.8,0-11,89.9c8.8,38.4,14.2,105.2,13.2,150.1c-2.2,64.7,1.1,82.2,17.5,93.2
		c12.1,9.9,18.6,28.5,18.6,54.8C1880,1893.3,1907.4,1898.8,1918.3,1850.6z M882.6,1635.8c32.9-4.4,66.9-12.1,74.5-18.6
		c30.7-24.1,3.3-164.4-40.6-202.8c-87.7-76.7-203.9-98.6-300.3-54.8c-42.7,19.7-57,34-74.5,72.3c-21.9,46-30.7,142.5-15.3,165.5
		c3.3,6.6,42.7,12.1,86.6,12.1c65.8,0,85.5,4.4,106.3,21.9c19.7,16.4,36.2,20.8,64.7,16.4C804.8,1644.5,849.7,1639,882.6,1635.8z
		 M1720,1618.2c29.6-47.1,42.7-123.8,28.5-169.9c-21.9-73.4-59.2-144.7-76.7-149.1c-25.2-6.6-208.2,12.1-244.4,25.2
		c-18.6,5.5-54.8,11-81.1,11c-48.2,0-48.2,0-75.6,60.3c-30.7,72.3-31.8,77.8-8.8,149.1c14.2,42.7,24.1,54.8,47.1,60.3
		c15.3,3.3,36.2,8.8,44.9,12.1c8.8,3.3,77.8,9.9,153.4,14.2c75.6,4.4,150.1,8.8,166.6,8.8C1694.7,1641.2,1709,1634.7,1720,1618.2z
		 M1162.1,1609.5c26.3-9.9,29.6-15.3,24.1-52.6c-2.2-21.9-7.7-51.5-11-64.7s7.7-62.5,24.1-109.6l29.6-85.5l65.8-8.8
		c35.1-4.4,101.9-15.3,146.9-24.1c46-8.8,123.8-16.4,175.4-16.4c80,0,95.3,3.3,117.3,24.1c20.8,19.7,28.5,21.9,36.2,9.9
		c4.4-8.8,4.4-28.5-2.2-46c-7.7-24.1-16.4-29.6-39.5-28.5c-27.4,2.2-29.6-1.1-29.6-37.3c0-49.3-19.7-74.5-53.7-68
		c-34,6.6-40.6-6.6-27.4-57c7.7-27.4,7.7-44.9,0-52.6c-7.7-7.7-13.2-1.1-18.6,20.8c-14.2,58.1-52.6,59.2-64.7,1.1
		c-13.2-64.7-41.6-117.3-62.5-117.3c-14.2,0-19.7-8.8-19.7-27.4c0-17.5-6.6-27.4-16.4-27.4c-8.8,0-16.4-4.4-16.4-11
		c0-5.5-14.2-11-31.8-11c-25.2,0-32.9,5.5-36.2,25.2c-2.2,15.3-12.1,25.2-29.6,27.4c-14.2,2.2-28.5,13.2-30.7,25.2
		c-6.6,23-38.4,36.2-68,26.3c-15.3-4.4-23,0-27.4,14.2c-4.4,11-29.6,36.2-55.9,55.9c-27.4,19.7-49.3,38.4-49.3,41.6
		c0,4.4,11,18.6,24.1,32.9c28.5,29.6,18.6,44.9-16.4,26.3c-15.3-7.7-57-12.1-106.3-9.9l-82.2,3.3v84.4c0,54.8-5.5,89.9-14.2,98.6
		c-19.7,19.7-32.9-4.4-40.6-78.9c-3.3-32.9-8.8-73.4-11-89.9c-2.2-16.4,0-32.9,5.5-36.2c21.9-14.2,11-49.3-18.6-61.4
		c-17.5-6.6-50.4-20.8-74.5-32.9c-24.1-11-49.3-20.8-57-20.8c-6.6,0-34-24.1-60.3-53.7C601,854,584.6,843,547.3,838.6l-44.9-5.5
		l-6.6,126c-4.4,69-12.1,132.6-19.7,141.4c-17.5,20.8-1.1,256.5,17.5,256.5c8.8,0,16.4-4.4,18.6-8.8c5.5-12.1,106.3-53.7,153.4-62.5
		c42.7-7.7,130.4,7.7,195.1,36.2c23,9.9,38.4,12.1,40.6,5.5c8.8-25.2,34-50.4,43.8-43.8c6.6,4.4,14.2,30.7,18.6,59.2
		c3.3,28.5,16.4,61.4,27.4,73.4c24.1,26.3,55.9,108.5,55.9,148C1047,1612.7,1100.7,1632.5,1162.1,1609.5z M1967.6,1270.8
		c0-13.2-21.9-27.4-29.6-19.7s6.6,29.6,19.7,29.6C1963.3,1280.7,1967.6,1276.3,1967.6,1270.8z M1781.3,1154.6
		c-7.7-8.8-17.5-16.4-23-16.4s-9.9,7.7-9.9,16.4c0,9.9,9.9,16.4,23,16.4C1791.2,1171.1,1792.3,1168.9,1781.3,1154.6z M970.3,1018.7
		c0-5.5-7.7-12.1-16.4-16.4c-8.8-3.3-16.4-13.2-16.4-23c0-8.8-4.4-16.4-11-16.4c-12.1,0-15.3,47.1-3.3,58.1
		C934.1,1031.9,970.3,1029.7,970.3,1018.7z M1060.2,912.4c30.7-6.6,107.4-84.4,107.4-109.6c0-14.2-122.7-27.4-252.1-26.3
		c-83.3,1.1-120.6-6.6-120.6-23c0-7.7,11-9.9,27.4-5.5c27.4,6.6,35.1,4.4,104.1-31.8c94.3-50.4,140.3-69,184.1-75.6
		c28.5-4.4,46-2.2,46,4.4c0,5.5-14.2,11-30.7,11c-29.6,0-57,16.4-57,35.1c0,15.3,47.1,8.8,92.1-12.1c57-27.4,105.2-39.5,105.2-26.3
		c0,6.6-12.1,16.4-27.4,23c-16.4,7.7-27.4,21.9-27.4,35.1c0,12.1-7.7,21.9-16.4,21.9c-9.9,0-16.4,9.9-16.4,23
		c0,19.7,4.4,21.9,25.2,15.3c13.2-4.4,41.6-11,62.5-14.2c34-7.7,39.5-13.2,51.5-57c19.7-76.7,17.5-107.4-7.7-115.1
		c-13.2-4.4-30.7-1.1-40.6,7.7c-11,8.8-19.7,9.9-21.9,3.3c-2.2-5.5-8.8-18.6-14.2-27.4c-9.9-14.2-13.2-13.2-27.4,4.4
		c-13.2,17.5-18.6,18.6-32.9,6.6c-8.8-7.7-16.4-20.8-16.4-29.6c0-30.7-38.4-9.9-43.8,24.1c-4.4,27.4-11,32.9-36.2,32.9
		c-18.6,0-35.1,7.7-41.6,19.7c-6.6,9.9-18.6,18.6-26.3,18.6c-19.7,0-19.7,0,0-47.1c8.8-21.9,16.4-70.1,16.4-106.3
		c0-51.5-3.3-65.8-16.4-65.8c-11,0-16.4,12.1-16.4,38.4c0,53.7-41.6,115.1-77.8,115.1c-32.9,0-53.7,35.1-53.7,89.9
		c0,31.8-2.2,32.9-32.9,27.4c-18.6-4.4-32.9-2.2-32.9,3.3c0,6.6-7.7,11-17.5,11c-15.3,0-17.5-9.9-11-76.7
		c4.4-44.9,3.3-76.7-2.2-76.7s-19.7,30.7-32.9,68c-20.8,64.7-25.2,70.1-70.1,85.5c-25.2,8.8-53.7,20.8-60.3,25.2
		c-26.3,17.5-14.2,28.5,24.1,21.9c35.1-5.5,42.7-2.2,84.4,41.6c27.4,29.6,46,42.7,49.3,35.1c11-29.6,54.8-13.2,107.4,39.5
		c53.7,53.7,55.9,54.8,109.6,49.3C1006.5,920.1,1043.7,915.7,1060.2,912.4z M1573.1,787.5c0-29.6-4.4-54.8-11-54.8
		c-5.5,0-11,25.2-11,54.8c0,30.7,5.5,54.8,11,54.8C1568.7,842.3,1573.1,818.2,1573.1,787.5z M1562.1,703.1
		c0-24.1-18.6-53.7-27.4-44.9s5.5,63.6,17.5,63.6C1557.7,721.7,1562.1,712.9,1562.1,703.1z M628.4,663.6c7.7-19.7,13.2-46,13.2-58.1
		c-1.1-17.5-4.4-16.4-25.2,9.9C602.2,631.8,585.7,645,578,645c-14.2,0-16.4,11-6.6,37.3C583.4,712.9,614.1,702,628.4,663.6z
		 M748.9,522.2c-5.5-16.4-52.6-26.3-52.6-11s13.2,24.1,36.2,24.1C743.4,535.4,751.1,529.9,748.9,522.2z M854.1,519
		c3.3-8.8,13.2-16.4,23-16.4c24.1,0,20.8-19.7-5.5-27.4c-29.6-9.9-43.8,1.1-43.8,34C827.8,538.7,844.3,544.2,854.1,519z
		 M1145.7,488.3c0-7.7-6.6-23-14.2-35.1c-19.7-26.3-35.1-3.3-18.6,27.4C1125.9,505.8,1145.7,510.2,1145.7,488.3z M959.3,425.8
		c0-5.5-4.4-11-11-11c-5.5,0-11,5.5-11,11c0,6.6,5.5,11,11,11C955,436.8,959.3,432.4,959.3,425.8z"/>
	<path class="st0" d="M1145.7,1172.2c0-32.9,12.1-55.9,28.5-55.9s19.7,29.6,8.8,59.2C1173.1,1199.6,1145.7,1197.4,1145.7,1172.2z"/>
</g>
</svg>
