<?xml version="1.0" encoding="utf-8"?>
<!-- Generator: Adobe Illustrator 21.1.0, SVG Export Plug-In . SVG Version: 6.00 Build 0)  -->
<svg version="1.1" id="Layer_1" xmlns="http://www.w3.org/2000/svg" xmlns:xlink="http://www.w3.org/1999/xlink" x="0px" y="0px"
	 viewBox="0 0 78.9 69.1" style="enable-background:new 0 0 78.9 69.1;" xml:space="preserve">
<style type="text/css">
	.st0{fill:#FFFFFF;}
</style>
<g>
	<path class="st0" d="M48.8,48.6c-1.1,1.2-3.2,2.8-4.2,2.3c-1.1-0.5-3.8-4.1-5.5-6.9l0,0l0.1-0.1c7-8.5,6.9-8.8,6.8-9.4L45.9,34
		l-0.4-0.2c-0.6-0.3-7.5-1.3-9.8-1.5c-1.4-0.1-1.9,0.4-2.2,0.8c-0.5,0.8-0.2,1.7-0.1,2l1.8,6.7v0.1c0.4,0.9,0.8,1.6,1.3,2
		c-1.1,1.9-3.6,5.7-5.5,6.7c-2,1.1-4.4-2.4-4.4-2.4c-0.3-0.5-0.9-0.6-1.4-0.3s-0.6,0.9-0.3,1.4c1.2,1.9,4.1,4.7,7.1,3.1
		c2.2-1.2,4.6-4.6,5.8-6.6c1.5,2.3,4.2,6.2,6,7C44.2,53,44.6,53,45,53c2.3,0,4.8-2.5,5.3-3.1c0.4-0.4,0.4-1-0.1-1.4
		C49.8,48.2,49.2,48.2,48.8,48.6z M37.8,41.9l-0.2,0.2c-0.1-0.2-0.3-0.5-0.5-0.9l-1.8-6.6v-0.1v-0.1c0.1,0,0.2,0,0.3,0
		c2.1,0.2,5.9,0.8,7.9,1.1c-1.1,1.5-3.3,4.3-5.4,6.9L37.8,41.9z"/>
	<path class="st0" d="M27.3,29.5c-0.2-1.2-1.2-1.9-2.6-2h-0.1c-0.5,0-1.6,0.1-2.3,0.9c-0.3,0.4-0.6,1-0.4,2c0.3,1.6,1.3,2.5,2.6,2.5
		l0,0c0.5,0,1-0.1,1.5-0.4C26.9,32,27.5,30.7,27.3,29.5z M25,30.8c-0.2,0.1-0.4,0.2-0.6,0.2c-0.1,0-0.5,0-0.7-0.9c0-0.2,0-0.3,0-0.3
		c0.1-0.1,0.4-0.2,0.8-0.2c0.7,0,0.8,0.3,0.8,0.4C25.4,30.2,25.2,30.7,25,30.8z"/>
	<path class="st0" d="M54.4,31.6c-0.1-0.5-0.4-1.5-1.9-1.9h-0.2c0,0-0.2,0-0.4,0c-1.6,0-2.7,0.9-2.8,2.3c0,0.9,0.3,1.7,0.9,2.3
		c0.5,0.5,1.1,0.8,1.7,0.8c0.4,0,0.7-0.1,1.1-0.3C53.5,34.2,54.6,32.9,54.4,31.6z M51.7,34v-1l0,0V34z M51.7,33c0,0-0.2-0.1-0.3-0.2
		c-0.1-0.1-0.3-0.4-0.3-0.9c0-0.1,0-0.4,0.8-0.4H52c0.2,0.1,0.4,0.2,0.4,0.2C52.4,32.1,52,32.8,51.7,33z"/>
	<path class="st0" d="M75.8,47.2c-1.3-1.1-4.2-2.1-7.5-3c1-2.7,1.5-6.4,0.3-11.6c-0.3-1.3-0.7-2.6-1.2-3.8c1.1-3.9,5-19.7-0.5-21.5
		c-5-1.6-11.3,5.1-12.3,6.2c-1.8-0.9-7.8-3.1-14.7-3.1c-3,0-5.8,0.4-8.3,1.2h-0.1c-0.1,0-0.4,0.2-0.9,0.5c-0.1-0.1-0.2-0.2-0.3-0.2
		c-3.1-1.4-10.5-4.8-11.9-4.8l0,0c-0.1,0-0.3,0-0.4,0c-1.3,0-3.4,0-4.5,3c-1,2.8-1.7,14.2,0.4,19.1l0,0c-1.8,2.9-2.8,6.2-2.2,11
		C8.6,41,5.3,42,3.4,43c-0.5,0.3-0.7,0.9-0.4,1.4c0.2,0.3,0.5,0.5,0.9,0.5c0.2,0,0.3,0,0.5-0.1c1.8-0.9,4.7-1.8,7.7-2.6
		c0.3,1.7,0.8,3.2,1.4,4.6c-3.9,1.9-7.7,3.9-8.3,4.3c-0.5,0.3-0.6,0.9-0.4,1.4C5,52.8,5.3,53,5.7,53c0.2,0,0.3,0,0.5-0.1
		c1.6-0.9,4.9-2.6,8.2-4.2c0.6,1.1,1.2,2.1,1.9,3.1c-2.1,1.4-4.5,3.1-5.4,4.3c-0.3,0.4-0.3,1.1,0.2,1.4c0.2,0.1,0.4,0.2,0.6,0.2
		c0.3,0,0.6-0.1,0.8-0.4c0.8-1,3-2.6,5.1-4c2.1,2.4,4.2,3.9,5.5,4.4c0.2,0.1,0.6,0.3,1.1,0.5c2.9,1.3,9.8,4.4,17.1,4.4l0,0
		c2.2,0,4.3-0.3,6.2-0.9c5.5-1.6,9.5-4,12.3-6.1c2.6,1.6,5.3,3.1,6.7,3.6c0.1,0,0.2,0.1,0.3,0.1c0.4,0,0.8-0.3,0.9-0.7
		c0.2-0.5-0.1-1.1-0.6-1.3c-1.1-0.4-3.4-1.7-5.7-3.1c1.1-1,1.9-1.9,2.5-2.6c2.8,1,5.3,2,6.2,2.5c0.2,0.1,0.3,0.1,0.5,0.1
		c0.3,0,0.7-0.2,0.9-0.5c0.3-0.5,0.1-1.1-0.4-1.4c-1-0.6-3.4-1.5-6-2.4c0.1-0.2,0.3-0.4,0.5-0.6c0.6-0.8,1.4-1.9,2.1-3.2
		c3.2,0.9,5.9,1.9,7,2.8c0.2,0.1,0.4,0.2,0.6,0.2c0.3,0,0.6-0.1,0.8-0.4C76.3,48.1,76.2,47.5,75.8,47.2z M66.3,9.2
		c2.5,0.8,1.5,9.6-0.2,16.6c-0.1-0.3-0.3-0.5-0.4-0.7c2.1-10,0.7-12.2-0.4-12.6L65,12.4c-1.4-0.1-4.9,2-7,3.4
		c-0.6-0.5-1.1-0.9-1.6-1.2C58.4,12.5,63.2,8.3,66.3,9.2z M64.2,22.6c-1.5-2.1-3.1-4-4.6-5.4c1.9-1.2,4-2.3,5-2.7
		C64.8,15.2,65.1,17.3,64.2,22.6z M48,16.6c0.3-1.7,0.4-2.6,0.3-3.1c2.1,0.5,3.8,1.1,4.8,1.5c-0.9,2.5-4.4,8.1-6,9.5
		C47,22.7,47.7,18.4,48,16.6z M39.9,12.4c2.4,0,4.7,0.3,6.7,0.7c-0.3,0.3-0.5,0.9-0.7,1.5c-1.1,3.3-2.5,6.4-3.5,7.9
		c-0.1-0.7-0.1-1.4-0.2-2.1c-0.6-5.9-0.8-7.5-2-7.7c-0.2,0-0.9-0.1-1.4,0.7c-0.4,0.7-1.2,2.2-2.1,3.9c-0.8,1.5-1.8,3.5-2.7,5
		c-0.2-2.1-0.4-5.7-0.6-9C35.5,12.7,37.6,12.4,39.9,12.4z M15.3,10.8c0.7-1.7,1.5-1.7,2.6-1.7c0.2,0,0.3,0,0.4,0
		c0.8,0.1,5.6,2.1,10.2,4.2c-1.1,0.6-2.3,1.5-3.6,2.5c-4.8-4.4-8-2.6-8.2-2.5l-0.4,0.2L16.2,14c-0.1,0.8-1.2,7.6,0.7,10.7
		c-0.1,0.1-0.1,0.1-0.2,0.2c-0.5,0.7-1.1,1.4-1.6,2.1C13.9,22.2,14.5,13,15.3,10.8z M23.3,17.1c-1.6,1.4-3.1,3-4.4,4.8
		c-0.2,0.3-0.5,0.7-0.7,1c-0.7-2.2-0.4-6-0.2-7.9C18.9,14.8,20.7,14.8,23.3,17.1z M63.8,48c-0.3,0.4-0.6,0.8-0.8,1.1c0,0,0,0,0,0.1
		c-3.6-1.3-7-2.4-7.3-2.5c-0.5-0.2-1.1,0.1-1.3,0.6s0.1,1.1,0.6,1.3c1.7,0.6,4.2,1.4,6.6,2.3c-0.6,0.7-1.3,1.4-2.2,2.2
		c-1.9-1.2-3.7-2.3-4.7-3c-0.5-0.3-1.1-0.2-1.4,0.3c-0.3,0.5-0.2,1.1,0.3,1.4c0.2,0.1,1.9,1.3,4.2,2.7c-2.6,1.9-6.2,3.9-11.1,5.3
		C45,60.3,43,60.6,41,60.6l0,0c-6.9,0-13.5-3-16.3-4.2c-0.5-0.2-0.9-0.4-1.2-0.5c-1-0.6-2.7-1.8-4.5-3.8c1-0.6,1.9-1.2,2.5-1.5
		c0.5-0.3,0.6-0.9,0.4-1.4c-0.3-0.5-0.9-0.6-1.4-0.4c-0.3,0.2-1.4,0.8-2.8,1.7c-0.6-0.9-1.2-1.8-1.8-2.9c3.5-1.7,6.6-3.2,7.1-3.4
		c0.4-0.1,0.7-0.5,0.7-1c0-0.6-0.4-1-1-1c-0.4,0-3.9,1.7-7.7,3.6c-0.5-1.3-0.9-2.7-1.2-4.2c3.8-0.9,7.2-1.5,7.2-1.5
		c0.5-0.1,0.9-0.6,0.8-1.2c-0.1-0.5-0.6-0.9-1.2-0.8c-0.3,0-3.5,0.6-7.2,1.5c-0.6-6.3,1.8-9.5,4.8-13.5c0.7-1,1.5-2,2.3-3.2
		c3.2-4.7,8.8-7.9,10.9-9c0.5,10.4,1,11,1.2,11.3l0.4,0.5h0.6c0.9-0.1,1.4-0.7,4.9-7.5c0.4-0.8,0.8-1.6,1.2-2.3
		c0.2,1.4,0.4,3.4,0.5,4.7c0.2,2.2,0.3,3.5,0.5,4c0.2,0.7,0.7,0.9,1.2,0.9c1,0,2.2-1.8,3.3-3.9c-0.3,3.3-0.1,4.5,0.7,5
		c0.2,0.1,0.4,0.2,0.8,0.2c0.2,0,0.4,0,0.6-0.1c2.3-0.9,6.3-7.9,7.5-10.7c2.1,1.4,6.1,4.8,9,9.8c0,0,0,0,0,0.1
		c1.2,2.1,2.2,4.5,2.8,7.2c1.1,4.8,0.6,8.1-0.3,10.6c-5-1.3-10.3-2.3-11.2-2.5c-0.5-0.1-1.1,0.3-1.2,0.8c-0.1,0.5,0.3,1.1,0.8,1.2
		c2.3,0.4,6.6,1.3,10.7,2.3C64.9,46.4,64.3,47.3,63.8,48z"/>
</g>
</svg>
