<?xml version="1.0" encoding="utf-8"?>
<!-- Generator: Adobe Illustrator 21.1.0, SVG Export Plug-In . SVG Version: 6.00 Build 0)  -->
<svg version="1.1" id="Layer_1" xmlns="http://www.w3.org/2000/svg" xmlns:xlink="http://www.w3.org/1999/xlink" x="0px" y="0px"
	 viewBox="0 0 75.8 90.2" style="enable-background:new 0 0 75.8 90.2;" xml:space="preserve">
<style type="text/css">
	.st0{fill:#FFFFFF;}
</style>
<path class="st0" d="M38.2,23.2c3.8-2.1,8.7-2.7,12.6-0.3c3.7,6.7-0.7,15.2-4.3,19.5c-2.3,6.1-6,11-9.6,15.8
	c-5.5-2.3-8.3-9.4-11.5-14.7c-1.4-2.3-3-4.1-3.5-7.2c-1.1-6.6,2.9-14.1,8.3-16.3C32.5,21.1,36.5,20.8,38.2,23.2z M27.5,22.7
	c-2.1,1.8-3.3,5.6-3.5,8.3c-0.3,5.9,2.1,9.2,4,12.6c2.8,4.9,6.2,10.2,8.6,12.8c1.7-1.9,3.7-5.5,5.9-9.4c1.9-3.4,4.5-6.6,5.9-9.6
	c1.3-2.8,2.8-7,2.4-9.9c-0.8-5.3-6.6-6.5-11-3.7c-0.9,0.5-0.4,2.5-1.6,2.7C36.3,23.1,31.3,19.6,27.5,22.7z"/>
<path class="st0" d="M67.4,47.5c-1.8,0.4-3.3,1.2-5.1,1.6c-2.4,5-1.3,11.6-5.3,14.7c-2.8,2.1-6.3,2.3-9.9,4
	c-0.6,4.8-0.2,9.4,0.5,12.8c-3.9,0.1-13.6-0.2-17.7-0.5c-0.4,0.1-0.1,0.8-0.5,0.8c-2.7,0.2-5.1,0-7,0c-0.9-0.5-0.2-3.2-1.6-2.4
	c0-3.9,1.4-10.6-0.5-15c-0.9-2-3-3.3-4-5.1c-0.6-1.1-0.9-2.6-1.6-4c-2.7-5.2-6.1-11-5.6-20.1c0.4-7.9,4.5-15.1,9.1-19
	c3.7-3.2,10.2-8.5,16-9.1c3.6-0.4,9.2-1.2,13.1-0.3c7.8,1.8,13.5,8.8,14.7,16.9c0.5,3.1-0.2,6.6,0.8,10.4
	C64,38.1,68.5,41.7,67.4,47.5z M63.9,41.7c-3.2-5.1-2.4-11.4-3.7-18.2C58,12.7,49.3,7.7,39,7.7c-6,0.9-11.5,1.4-16,4.5
	c-2,2.8-5.4,3.7-7.5,6.4C11,24.4,10,36.1,12.3,43.7c2.1,7,7.9,12.8,9.6,19.5c1,3.8,0.5,9,0.3,13.1c0.8,0.7,1.2,0.6,0.8,2.1
	c7.6,0.2,15-1.3,22.2,0c0.1-4.4-0.5-9.4,1.3-12c1.4-0.4,2.6-1.1,4-1.6c1.3-0.4,3-0.5,4.3-1.1c5.3-2.5,3.2-10.5,6.7-15.5
	c1.7-0.5,3.6-0.9,4.8-1.9C66.6,44,64.9,43.3,63.9,41.7z"/>
</svg>
