<?xml version="1.0" encoding="utf-8"?>
<!-- Generator: Adobe Illustrator 21.1.0, SVG Export Plug-In . SVG Version: 6.00 Build 0)  -->
<svg version="1.1" id="Layer_1" xmlns="http://www.w3.org/2000/svg" xmlns:xlink="http://www.w3.org/1999/xlink" x="0px" y="0px"
	 viewBox="0 0 100 63.9" style="enable-background:new 0 0 100 63.9;" xml:space="preserve">
<style type="text/css">
	.st0{fill:#FFFFFF;}
</style>
<path class="st0" d="M13.7,51.9C14.1,52,14.6,52,15,52c-0.1-0.5-0.1-1-0.1-1.5c0-7.9,4.1-16.6,10.9-23.3c0,0,8.1-7.9,13.1-9.1
	c0.9-0.2,1.8-0.4,3-0.6h0.4c5.2-1.1,11.1-2.4,17.4-2.4c1.5,0,2.8,0,4.1,0.2c4.4,0.7,9.8,6.1,9.6,10.2c-0.2,4.2-1.8,7-3.9,8.9
	c-3.3,3.1-8.3,3.5-13.1,3.5h-5c-2.2,0-6.3,0.7-9.6,2c-2.4,0.9-6.5,2.8-6.5,5.2c-0.7,2.4-0.2,4.9,1,7.3c0.6,0,1.3,0,1.9,0.1
	c-0.8-1.3-1.2-2.7-1.3-4.4c0-1.7,0.2-4.1,2.4-5.4c2.8-1.7,8.9-2.8,10.9-3c2.6-0.2,11.6,0.9,16.1-1.3c0,0,4.2,0.4,7.6,0.7
	c1.5,0.2,9.1,1.1,10,1.1c0.7,0,4.1-0.2,4.1-1.5c0-2.2-3.3-6.8-4.1-8.1s-5.4-6.5-6.8-7.6c-0.7-0.7-2-1.5-3-2.4
	c-2.6-3.9-7-7.4-16.3-7.4c-5.4,0-15.7,2.6-16.8,2.8c-2.4,0.4-5.7,1.3-6.5,1.7c-1.1,0.6-3.1,1.7-4.1,2.4c-1.3,0.7-5.2,4.2-5.5,4.6
	c-3.1,2.8-9.6,13.5-10,14.2c-0.8,1.3-3.1,7.8-3.2,12.7C12.4,51.8,13,51.8,13.7,51.9z M74.8,24c2.8,1.3,9.8,10.3,10.5,13.7
	c0,0.6,0,0.9,0,0.9L69,37.1C72.2,34.5,75.3,27.5,74.8,24z"/>
<path class="st0" d="M57.9,24.7c0,2.2,1.7,4.1,4.1,4.1c1.7,0,3.5-1.7,3.7-2.8c0.2-3-1.5-5.4-3.7-5.4C60.3,20.6,57.9,22.5,57.9,24.7"
	/>
</svg>
