<?xml version="1.0" encoding="utf-8"?>
<!-- Generator: Adobe Illustrator 21.1.0, SVG Export Plug-In . SVG Version: 6.00 Build 0)  -->
<svg version="1.1" id="Layer_1" xmlns="http://www.w3.org/2000/svg" xmlns:xlink="http://www.w3.org/1999/xlink" x="0px" y="0px"
	 viewBox="0 0 150 187.5" style="enable-background:new 0 0 150 187.5;" xml:space="preserve">
<style type="text/css">
	.st0{fill:#FFFFFF;}
</style>
<title>icons</title>
<g>
	<path class="st0" d="M63.6,25.1c-1.1,0-1.6,1.4-1.8,2.6c-0.7,2.6-1.8,5.1-3.4,7.3c-1.3,1.8-2.3,3.8-2.8,6c-0.1,0.4-0.1,0.9,0.3,1.1
		s0.8-0.2,1.1-0.5l3-3.7c1.1-1.2,2-2.6,2.8-4c0.9-1.8,1.5-3.6,1.9-5.6c0.2-0.6,0.3-1.3,0.2-1.9C64.8,25.8,64.3,25.2,63.6,25.1z"/>
	<path class="st0" d="M56.6,44.4c-0.4,0.6-0.7,1.6,0,1.9c1.8-1.3,3.3-2.9,4.6-4.8c0.5-0.6,1-1.3,1.2-2.1c0.3-0.8,0.1-1.6-0.4-2.3
		C60.1,39.5,58.3,41.9,56.6,44.4z"/>
	<path class="st0" d="M56.7,85.3c-0.3-0.1-0.7,0-0.9,0.2c-0.3,0.4-0.3,1.1,0.2,1.4c0.1,0,0.1,0.1,0.2,0.1c0.5,0.1,1-0.1,1.1-0.6
		C57.5,85.9,57.2,85.4,56.7,85.3z"/>
	<path class="st0" d="M56.8,60.9c-0.4,0.1-0.7,0.5-0.6,1c0.1,0.4,0.5,0.7,1,0.6l0,0.1c0.4-0.1,0.6-0.4,0.6-0.8c0-0.1,0-0.2,0-0.3
		C57.7,61.1,57.3,60.8,56.8,60.9z"/>
	<path class="st0" d="M60.6,56.7L60,57c0,0.6,0.2,1.2,0.7,1.7c0.4,0.2,0.9-0.4,0.9-0.8C61.4,57.3,61.1,56.9,60.6,56.7z"/>
	<path class="st0" d="M59.8,52.2c0.3-0.1,0.6-0.3,0.7-0.6c0.1-0.5-0.3-1.1-0.9-1.1c-0.1,0-0.2,0-0.2,0c-0.5,0.1-0.8,0.6-0.7,1.1
		S59.3,52.3,59.8,52.2z"/>
	<path class="st0" d="M59.1,71.9c0.2-0.1,0.3-0.3,0.4-0.5c0.2-0.6-0.1-1.2-0.7-1.4l-0.6,0.3c0,0.4,0.1,0.9,0.3,1.3l0,0L59.1,71.9z"
		/>
	<path class="st0" d="M60.1,77.3l-0.8-0.5l-0.6,0.4c0,0.1-0.1,0.1-0.1,0.2c-0.1,0.5,0.2,1.1,0.7,1.2C60.1,78.7,60.5,77.8,60.1,77.3
		L60.1,77.3z"/>
	<path class="st0" d="M56.9,58.1c0.1,0,0.2-0.1,0.3-0.1c0.3-0.3,0.4-0.8,0.1-1.1c-0.3-0.3-0.8-0.4-1.1-0.1c-0.2,0.2-0.3,0.5-0.3,0.7
		C56,58,56.5,58.3,56.9,58.1z"/>
	<path class="st0" d="M124.5,169.7c-0.3-1.1-1.1-2.1-2.2-2.4l-10.3-2.8c-2.1-0.5-4.2-1.1-5.8-2.5s-2.6-3.8-1.6-5.7
		c0.6,0.9,1.3,1.6,2.2,2c0.7,0.3,1.7,0.5,2.1-0.2c0.3-0.7-0.5-1.5-1.2-1.9l-2.1-1.2c1.4-0.4,3-0.6,4.3-1.4c1.3-0.8,2.1-2.7,1.2-3.9
		c-0.7-1-2.3-1.1-3.4-0.6c-1.1,0.6-1.9,1.6-2.7,2.6l-0.6,0.8c-0.4-4.3-0.3-8.6,0.1-12.9c0.1-0.8-0.6-1.5-1.3-1.7
		c-0.8-0.2-1.6-0.2-2.3-0.1l-0.8,0.1l1.3-11.7c0.3,0,0.7,0,1,0c1.5-0.1,2.7-1,3.2-2.4c0.4-1.4,0.6-2.8,0.5-4.2l-1.1-56.5
		c-0.1-5.1-0.2-10.3-0.4-15.4c-0.4-11-1.2-22.4-5.7-32.5c-0.2-0.6-0.6-1.2-1.1-1.6c-0.7-0.5-1.6-0.7-2.5-0.7
		c-14.8-1-29.6-1.4-44.4-1c-1-0.1-2.1,0.3-2.8,1c-0.3,0.6-0.5,1.2-0.5,1.9c-1.6,23-1.9,46.1-1.9,69.1c0,4.9,0,9.7,0.3,14.6
		c0.7,9.7,1.9,19.3,3.6,28.8c0.1,0.7,0.3,1.4,0.7,1.9c0.7,0.9,2,1,3.2,1l3.2,0.4l0.4,7.3c-0.4,0-0.9,0.1-1.3,0.2
		c-0.7,0.3-1.4,1-1.3,1.7c0.4,4.3,0.4,8.6,0.1,12.9l-0.6-0.8c-0.7-1-1.5-2-2.7-2.6c-1.1-0.6-2.7-0.5-3.4,0.6
		c-0.9,1.2-0.1,3.1,1.2,3.9c1.3,0.8,2.9,1,4.3,1.4l-2.1,1.2c-0.7,0.4-1.5,1.2-1.2,1.9c0.3,0.7,1.4,0.6,2.1,0.2
		c0.9-0.5,1.7-1.2,2.2-2c1,1.9,0,4.3-1.6,5.7c-1.6,1.4-3.7,2-5.8,2.5l-10.3,2.8c-1.1,0.3-1.9,1.3-2.2,2.4c-0.3,1.1-0.2,2.3-0.2,3.4
		l-0.1,0l0.2,3.4c0,0.5,0.1,1,0.6,1.2c1,0.3,0.4,2.1,1.3,2.7c0.4,0.2,0.8,0.2,1.2,0.1l7.7-1.1c1.9-0.2,3.8-0.6,5.7-1.1
		c0.9-0.3,1.9-0.6,2.8-0.6c1.2,0,2.3,0.4,3.5,0.2c1.4-0.2,2.7-1.1,4.1-1.5c1.1-0.3,2.3-0.1,3.5-0.1c1.7,0,3.3-0.5,4.8-1.3
		c0.5-0.3,1-0.6,1.5-0.7c0.6-0.1,1.2,0.1,1.8,0c0.6-0.1,1.2-0.7,0.9-1.2c-0.2-0.3-0.6-0.4-1-0.4c-2.4,0-4.4,2-6.8,2.4
		c-1.4,0.2-2.8-0.1-4.2,0.1c-1.4,0.2-2.7,0.9-4,1.1c-1.3,0.3-2.6,0.2-3.8,0.3c-1.3,0.1-2.7,0.3-4,0.5l-6.2,1c-1.7,0.2-3.3,0.6-5,1
		c-0.4,0.2-0.8,0.2-1.3,0.1c-0.4-0.1-0.7-0.5-0.7-0.9c0.1-0.4,0.6-0.6,1.1-0.7c11.9-2.1,23.7-4,35.6-5.8c0.5-0.1,1.1-0.3,1.1-0.7
		c0-0.7-0.9-0.8-1.6-0.7l-8.8,1.7c-0.6-3.1,0.8-6.2,3.5-7.9c0.6-0.4,1.3-0.6,2-0.6c0.7,0,1.3,0.5,1.6,1.1l1.2,4
		c0.2,0.7,0.8,1.5,1.4,1.2c0.6-0.3,0.3-1.1,0-1.7c-1.1-2.2-1.4-4.8-1.6-7.3l-1.1-11.8c-0.2-2.2-0.4-4.5,0.3-6.6
		c0.3-0.9,0.8-2.1,0.2-2.8c-0.4-0.5-1.2-0.7-1.8-0.7l-0.5-0.1l1.1-6.9l1.5,0.2c2.3,0,5.3-0.7,5.3-3l-22.6-1.9
		c-0.6,0.1-1.2-0.1-1.6-0.5c-0.4-0.6-0.2-1.4,0.5-1.8c0.6-0.3,1.3-0.5,2-0.5l8.8,0.2c2.9-0.1,7.2-0.4,9.5,1.4c0.7,0.4,3,1.4,3.4,0.7
		c0.4-0.7,0.6-1.5,0.5-2.2l0-0.1c0.6-13.9,0.1-29.5-0.4-43.4l-0.5-14.9c4.9,18.3,7.4,37.3,7.4,56.2c0,2.5,0.6,5.8,3.1,6
		c0.1,0,0.1,0,0.2,0l1.5,10.2c-0.7,0.1-1.4,0.2-1.8,0.7c-0.6,0.8-0.1,1.9,0.2,2.8c0.7,2.1,0.5,4.4,0.3,6.6L86.6,161
		c-0.2,2.5-0.5,5-1.6,7.3c-0.3,0.6-0.5,1.4,0,1.7c0.6,0.3,1.2-0.5,1.4-1.2l1.2-4c0.3-0.7,0.9-1.1,1.6-1.1c0.7,0,1.4,0.2,2,0.6
		c2.7,1.7,4.1,4.8,3.5,7.9l-8.8-1.7c-0.7-0.1-1.6,0-1.6,0.7c0,0.5,0.6,0.7,1.1,0.7c11.9,1.7,23.8,3.7,35.6,5.8
		c0.4,0.1,1,0.2,1.1,0.7c0.1,0.4-0.2,0.9-0.7,0.9c-0.4,0.1-0.9,0-1.3-0.1c-1.6-0.4-3.3-0.7-5-1l-6.2-1c-1.3-0.2-2.7-0.4-4-0.5
		c-1.3-0.1-2.6,0-3.8-0.3c-1.4-0.3-2.6-1-4-1.1c-1.4-0.2-2.8,0.1-4.2-0.1c-2.4-0.4-4.4-2.3-6.8-2.4c-0.4,0-0.7,0.1-1,0.4
		c-0.3,0.5,0.3,1.2,0.9,1.2c0.6,0.1,1.2-0.1,1.8,0c0.6,0.1,1.1,0.4,1.5,0.7c1.5,0.8,3.1,1.3,4.8,1.3c1.2,0,2.3-0.2,3.5,0.1
		c1.4,0.3,2.6,1.3,4.1,1.5c1.2,0.1,2.3-0.3,3.5-0.2c1,0,1.9,0.4,2.8,0.6c1.9,0.5,3.8,0.9,5.7,1.1l7.7,1.1c0.4,0.1,0.8,0.1,1.2-0.1
		c0.9-0.6,0.3-2.4,1.3-2.7c0.4-0.1,0.5-0.7,0.6-1.2l0.2-3.4l-0.1,0C124.7,171.9,124.8,170.8,124.5,169.7z M104.9,153.8
		c0.6-1.1,1.3-2,2.1-2.9c0.4-0.5,0.9-0.9,1.4-1.1c0.6-0.2,1.2-0.1,1.7,0.3l0,0c0.3,0.4,0.4,1,0.2,1.5c-0.2,0.5-0.6,0.9-1,1.2
		c-1.2,0.8-2.6,1.1-4.1,1.4c-0.2,0-0.4,0-0.4-0.2C104.9,153.9,104.9,153.8,104.9,153.8z M53.7,154.4c-1.4-0.3-2.9-0.6-4.1-1.4
		c-0.4-0.3-0.8-0.7-1-1.2c-0.2-0.5-0.1-1.1,0.2-1.5l0,0c0.5-0.4,1.1-0.5,1.7-0.3c0.6,0.3,1,0.6,1.4,1.1c0.8,0.9,1.5,1.9,2.1,2.9
		c0,0,0,0.1,0,0.1C54.2,154.3,53.9,154.4,53.7,154.4z M56,139.3c0.2,0,0.2,0.3,0.3,0.4c0.2,0.9,0.3,1.8,0.4,2.7
		c0.1,0.4,0,0.8-0.2,1.1l0,0c-0.4-0.1-0.6-0.6-0.6-1.1l-0.3-2.4C55.5,139.7,55.7,139.2,56,139.3z M53.4,163.4c0.2,0,0.5,0,0.7,0.1
		l0-0.1c0.2,0,0.1,0.3,0,0.4c-0.2,0.1-0.3,0.1-0.5,0c-0.2-0.1-0.4,0-0.5,0.1C52.9,163.8,53.1,163.5,53.4,163.4z M47.7,166
		c0.1,0,0.1,0.1,0.1,0.2c0.2,0.4,0.3,0.8,0.4,1.2c0,0,0,0,0,0c-0.2,0.1-0.4,0-0.5-0.2l0,0c-0.3-0.1-0.5-0.4-0.5-0.6
		C47.1,166.2,47.5,165.8,47.7,166z M71.2,163.4c-1.8-0.6-3.8-0.2-5.3,1c-2.1,1.7-2.6,4.6-3.1,7.2c-0.1,0.5-0.4,1.2-0.9,1.1
		c-0.4-0.1-0.4-0.7-0.4-1.1c0.4-3.5,2.2-6.6,5.1-8.6c0.8-0.6,1.7-1,2.7-1.1l0,0c0.5-0.1,0.9,0,1.4,0.2C71,162.5,71.2,163,71.2,163.4
		z M64.1,163.5c-2.4,2.4-3.9,5.6-4.1,9c0,0.2-0.3,0.3-0.5,0.4l-22.4,3.7c-0.2,0-0.3,0-0.5,0c-0.2-0.1-0.4-0.4-0.4-0.6
		c-0.4-1.7-0.5-3.5-0.4-5.2c0-0.4,0.1-0.9,0.4-1.2c0.3-0.3,0.7-0.6,1.1-0.7c2.1-0.9,4.3-1.6,6.6-2.1c0.4-0.1,0.8-0.1,1.2-0.1
		c1.2,0.3,1.7,1.9,2.8,2.1c1.1,0.2,1.9-1.4,1.2-2.2c-0.3-0.4-0.1-1.1,0.3-1.4c0.5-0.3,1-0.4,1.5-0.4l5.7-0.3c0.7,0,1.7-0.4,1.5-1.1
		c-0.1-0.4-0.5-0.6-0.9-0.7c-0.8-0.2-1.6-0.2-2.4-0.1c-0.2-0.5,0-1,0.4-1.3c0.4-0.3,0.9-0.5,1.3-0.6c1.9-0.6,3.7-1.7,5.1-3.2
		c0.2-0.1,0.3-0.3,0.3-0.6c0-0.5-0.7-0.7-1.2-0.7c-1.6,0.1-3.1,0.6-4.4,1.6c-0.4-0.1-0.5-0.6-0.3-0.9c0.2-0.3,0.6-0.5,0.9-0.6
		c2.2-1,4.2-2.4,5.8-4.2l0.1,0c0.4-0.4,0.7-1.2,0.2-1.5c-0.2-0.1-0.5-0.1-0.7-0.1c-2.3,0.4-4.6,1.3-6.5,2.7l-0.1-7.8
		c0-0.4,0.1-0.9,0.5-1c0.8-0.1,0.8,1.5,1.6,1.5c0.3-0.4,0.4-0.8,0.4-1.3c0.7-0.3,1.1,1.1,1.8,1c0.3,0,0.4-0.3,0.6-0.5
		c0.2-0.2,0.6-0.3,0.7,0c0.3,0.5,1.1,0.5,1.7,0.4c0.6,0,1.4,0.3,1.3,0.9c0.5-1,2-0.9,3-0.6c0.7,0.1,1.4,0.3,1.8,0.9
		c0.3,0.4,0.4,0.9,0.4,1.4l1.3,12.9C68.4,160.6,65.9,161.8,64.1,163.5z M60.8,151.9c0.2-0.1,0.5-0.2,0.8-0.1c-1.7,1.6-3.5,2.9-5.5,4
		c-0.2-0.4-0.2-0.9,0.1-1.3c0.3-0.4,0.7-0.7,1.1-0.9C58.4,153,59.6,152.4,60.8,151.9L60.8,151.9z M58.8,158.4
		c-0.9,0.7-1.9,1.3-3,1.5c1-1,2.2-1.8,3.5-2.2c0,0.1,0,0.2-0.1,0.3C59.1,158.2,58.9,158.3,58.8,158.4L58.8,158.4z M61.7,143
		c0,0.4,0,0.9-0.4,1.1c-0.4,0.2-0.9-0.2-1-0.6c-0.1-0.4-0.1-0.9,0-1.3c0-0.5-0.1-0.9-0.1-1.4c0-0.5,0.2-0.9,0.6-1.2
		c0.4-0.2,1.1,0,1,0.5L61.7,143L61.7,143z M62.8,143.5l0.2-2.9c0-0.2,0.1-0.4,0.2-0.6c0.2-0.1,0.4-0.2,0.6-0.1
		c0.3,0,0.6,0.1,0.6,0.4c0,0.1,0,0.2,0,0.3l-0.6,3.2c-0.1,0.3-0.2,0.7-0.5,0.7l0,0C62.9,144.6,62.8,144,62.8,143.5z M64.8,143.8
		l0.7-2.4c0.1-0.5,0.3-1,0.7-1.2c0.4-0.2,1.1,0.1,1,0.6l0,0l-0.8,3.1c0,0.3-0.2,0.5-0.3,0.8c-0.2,0.2-0.5,0.3-0.7,0.2
		C64.9,144.7,64.7,144.3,64.8,143.8z M70.1,140.5c0.4,0.4,0.3,1,0.2,1.6l-0.7,2.7c-0.1,0.2-0.1,0.5-0.4,0.6c-0.1,0-0.3,0-0.4,0
		l-0.7-0.2l0,0c-0.1,0-0.3-0.1-0.4-0.2c-0.1-0.2-0.1-0.4-0.1-0.5l0.4-2.2c0.1-0.5,0.3-1,0.6-1.5C69,140.3,69.7,140.2,70.1,140.5z
		 M68.5,132.1l-1.1,6.9l-8.4-0.9l-0.4-7.2L68.5,132.1z M58.4,139.2c0.1,0,0.2,0,0.4,0.1l0,0c0.2,0.2,0.3,0.4,0.2,0.6l0,3
		c0,0.3,0,0.7-0.3,0.9c-0.3,0.1-0.5,0-0.7-0.3c-0.1-0.2-0.2-0.5-0.2-0.8l-0.5-3.6C57.7,139.2,58.1,139.1,58.4,139.2z M111.2,165.9
		c0-0.1,0.1-0.1,0.1-0.2c0.2-0.2,0.5,0.2,0.5,0.4c-0.1,0.3-0.3,0.5-0.5,0.6l0,0c-0.1,0.2-0.3,0.3-0.5,0.2c0,0,0,0,0,0
		C110.8,166.7,111,166.3,111.2,165.9z M104.9,163.3L104.9,163.3c0.2-0.1,0.5-0.1,0.7-0.1c0.2,0.1,0.4,0.3,0.3,0.6
		c-0.2-0.1-0.3-0.1-0.5-0.1c-0.2,0.1-0.3,0.1-0.5,0C104.8,163.6,104.7,163.3,104.9,163.3z M102.3,142.2c0.1-0.9,0.2-1.8,0.4-2.7
		c0-0.2,0.1-0.4,0.3-0.4c0.3-0.1,0.4,0.4,0.4,0.7l-0.3,2.4c0,0.4-0.2,1-0.6,1.1l0,0C102.3,142.9,102.2,142.5,102.3,142.2z
		 M100.2,139L100.2,139c0.1-0.1,0.2-0.1,0.4-0.1c0.4,0,0.7,0,1.1,0l-0.5,3.6c0,0.3-0.1,0.5-0.2,0.8c-0.1,0.2-0.4,0.3-0.7,0.3
		c-0.3-0.1-0.3-0.5-0.3-0.9l0-3C100,139.4,100,139.1,100.2,139z M50,14.2c0.8-0.5,1.8-0.7,2.8-0.6c13.2,0,26.4,0,39.5,0.7
		c1.2-0.1,2.3,0.3,3.2,1.1c0.8,0.9,0.1,2.7-1,2.4C79.8,14.4,64.7,14,50,16.7C49.1,16.2,49.3,14.8,50,14.2z M89.7,122.8
		c0.9-0.4,2-0.4,2.9-0.2c2.6,0.3,5.3,0.1,7.8-0.7c-0.6-1.4-2.3-1.8-3.8-1.7c-1.5,0.3-2.9,0.5-4.4,0.6c-1.5,0-3.1-1-3.2-2.5
		c-0.8-20.8-4.4-41.3-10.6-61.1c-0.4-1.9-1.4-3.7-2.7-5.2c-0.6-0.7-1.4-0.9-2.3-0.7c-0.9,0.4-1,1.6-1,2.6l1.5,70
		c-1.3-1.5-3.5-1.6-5.5-1.6c-4.4,0.1-8.7,0.4-13,1c-1.2,0.1-2.4-0.6-2.9-1.7c-0.5-1.1-0.8-2.3-0.9-3.5c-3.5-32.4-2-65-0.5-97.5
		c-0.1-0.7,0.2-1.3,0.6-1.8c0.4-0.3,0.8-0.4,1.3-0.5L65.5,17c0.7-0.2,1.5-0.1,2.2,0.3c0.5,0.5,0.7,1.2,0.7,1.9l1.4,15.9
		c0.2,2.1,2.2,3.7,4.2,4.2c2.1,0.3,4.2,0.2,6.3-0.4c0.4,0,0.8-0.2,1.1-0.4c0.7-0.7,0.1-2-0.8-2.3c-1-0.2-2,0-2.9,0.5
		c-0.9,0.5-1.9,0.6-2.9,0.5c-1.6-0.5-2.1-2.6-2.2-4.3l-1-13.3c-0.2-0.8,0-1.6,0.6-2.1c0.5-0.3,1.2-0.4,1.8-0.2l20.4,2.5
		c1,0,1.9,0.4,2.6,1.1c0.3,0.5,0.5,1,0.6,1.6v0.1c1.1,5.9,1.9,11.8,2.5,17.8c-0.2-0.1-0.4-0.3-0.6-0.4c-3.2-2.3-5.4-5.7-6.2-9.5
		c-0.1-0.9-0.4-1.7-0.9-2.5c-0.6-0.7-1.8-0.8-2.3,0c-0.1,0.4-0.2,0.8-0.1,1.1c0.7,6.2,5.1,11.6,10.4,15c0.1,0.9,0.2,1.9,0.2,2.8
		c0.3,5.8,0.4,11.5,0.5,17.3l0.8,56.4c0,1,0,2.3-0.9,2.9c-0.5,0.3-1,0.5-1.6,0.6l-8.6,1.4c-0.4,0.1-0.8,0.1-1.2,0
		C88.6,124.8,88.9,123.3,89.7,122.8z M98.7,143.2c-0.1,0.4-0.6,0.8-1,0.6c-0.4-0.2-0.4-0.7-0.4-1.1l0,0l0-3c0-0.5,0.6-0.7,1-0.5
		c0.4,0.3,0.6,0.7,0.6,1.2c0,0.5-0.1,0.9-0.1,1.4C98.8,142.4,98.8,142.8,98.7,143.2z M98.1,138.1l-7.1,0.8l-1.6-10.4
		c0.1-0.1,0.2-0.1,0.4-0.2c3.1-1.2,6.3-1.9,9.6-2.1L98.1,138.1z M95.7,144.3c-0.3,0-0.5-0.4-0.5-0.7l-0.6-3.2c0-0.1,0-0.2,0-0.3
		c0.1-0.3,0.4-0.3,0.6-0.4c0.2,0,0.5,0,0.6,0.1c0.1,0.2,0.2,0.4,0.2,0.6l0.2,2.9C96.2,143.7,96.1,144.3,95.7,144.3L95.7,144.3z
		 M93.7,144.5c-0.3,0.1-0.6,0-0.7-0.2c-0.2-0.2-0.3-0.5-0.3-0.8l-0.8-3.1l0,0c-0.1-0.5,0.6-0.8,1-0.6c0.4,0.2,0.6,0.8,0.7,1.2
		l0.7,2.4C94.3,144,94.1,144.4,93.7,144.5z M88.9,140.3c0.4-0.4,1.1-0.2,1.4,0.2c0.3,0.4,0.5,0.9,0.6,1.5l0.4,2.2
		c0.1,0.2,0,0.4-0.1,0.5c-0.1,0.1-0.2,0.2-0.4,0.2l0,0l-0.7,0.2c-0.1,0-0.3,0.1-0.4,0c-0.2-0.1-0.3-0.3-0.4-0.6l-0.7-2.7
		C88.6,141.3,88.6,140.6,88.9,140.3z M97.2,172.5c-0.5,0.2-0.8-0.5-0.9-1.1c-0.4-2.6-1-5.5-3.1-7.2c-1.5-1.2-3.5-1.6-5.3-1
		c-0.1-0.5,0.2-0.9,0.6-1.2c0.4-0.2,0.9-0.3,1.4-0.2l0,0c1,0.1,1.9,0.5,2.7,1.1c2.9,2,4.7,5.1,5.1,8.6
		C97.6,171.9,97.6,172.4,97.2,172.5z M122.8,175.8c0,0.3-0.2,0.5-0.4,0.6c-0.2,0-0.3,0.1-0.5,0l-22.4-3.7c-0.2,0-0.5-0.1-0.5-0.4
		c-0.2-3.4-1.7-6.6-4.1-9c-1.8-1.7-4.3-3-6.6-2.2l1.3-12.9c0-0.5,0.1-1,0.4-1.4c0.4-0.6,1.1-0.7,1.8-0.9c1.1-0.2,2.5-0.3,3,0.6
		c-0.1-0.6,0.7-0.9,1.3-0.9c0.6,0,1.3,0.1,1.7-0.4c0.1-0.2,0.5-0.1,0.7,0c0.2,0.2,0.3,0.4,0.6,0.5c0.7,0.1,1.1-1.3,1.8-1
		c0,0.4,0.1,0.9,0.4,1.3c0.8,0,0.8-1.7,1.6-1.5c0.4,0.1,0.5,0.6,0.5,1l-0.1,7.8c-2-1.4-4.2-2.3-6.5-2.7c-0.2-0.1-0.5,0-0.7,0.1
		c-0.5,0.3-0.2,1.1,0.2,1.5l0.1,0c1.6,1.8,3.6,3.2,5.8,4.2c0.4,0.1,0.7,0.3,0.9,0.6c0.2,0.3,0.1,0.8-0.3,0.9c-1.3-1-2.8-1.5-4.4-1.6
		c-0.5,0-1.2,0.2-1.2,0.7c0,0.2,0.2,0.4,0.3,0.6c1.4,1.5,3.1,2.6,5.1,3.2c0.5,0.1,0.9,0.3,1.3,0.6c0.4,0.3,0.6,0.8,0.4,1.3
		c-0.8-0.1-1.6-0.1-2.4,0.1c-0.4,0.1-0.8,0.3-0.9,0.7c-0.2,0.7,0.8,1,1.5,1.1l5.7,0.3c0.5,0,1.1,0.1,1.5,0.4c0.4,0.3,0.7,1,0.3,1.4
		c-0.7,0.8,0.2,2.4,1.2,2.2c1.2-0.2,1.7-1.8,2.8-2.1c0.4-0.1,0.8,0,1.2,0.1c2.3,0.5,4.5,1.2,6.6,2.1c0.4,0.1,0.8,0.4,1.1,0.7
		c0.2,0.4,0.4,0.8,0.4,1.2C123.3,172.3,123.1,174.1,122.8,175.8z M99.8,157.9c-0.1-0.1-0.1-0.2-0.1-0.3c1.3,0.4,2.5,1.2,3.5,2.2
		c-1.1-0.2-2.1-0.9-3-1.5l0,0C100.1,158.1,99.9,158,99.8,157.9z M101.8,153.4c0.4,0.2,0.8,0.5,1.1,0.9c0.3,0.4,0.3,0.9,0.1,1.3
		c-2-1.1-3.9-2.4-5.5-4c0.3-0.1,0.6-0.1,0.8,0.1l0,0C99.4,152.2,100.6,152.8,101.8,153.4z"/>
</g>
</svg>
