<?xml version="1.0" encoding="utf-8"?>
<!-- Generator: Adobe Illustrator 21.1.0, SVG Export Plug-In . SVG Version: 6.00 Build 0)  -->
<svg version="1.1" id="Layer_1" xmlns="http://www.w3.org/2000/svg" xmlns:xlink="http://www.w3.org/1999/xlink" x="0px" y="0px"
	 viewBox="0 0 71.1 101.3" style="enable-background:new 0 0 71.1 101.3;" xml:space="preserve">
<style type="text/css">
	.st0{fill:#FFFFFF;}
</style>
<path class="st0" d="M32.8,72.7c-1.6-1.7-4.3-3.5-4.7-5.2c-0.3-2.1-0.6-42.6-0.3-52.2c-0.8,0-1.5,0-2.2-0.1
	c0.2,10.9,0.6,52.2,0.3,53c0,0-5.5,1.7-7.3,4.7c-0.5,0.9,2.1,0,3.1-0.3c1.4-0.5,2.6-1.9,3.6-2.1c1.4-0.3-1.4,4.8-1,8.3
	c0.2,1,1.2,0.7,1.6-0.2c1.2-2.4,1.9-5.7,2.4-6.6s1.6,0.7,2.2,1.2c1,0.7,2.6,2.4,3.5,1.4C34.6,73.9,33.4,73.4,32.8,72.7z"/>
<path class="st0" d="M44.6,66.5c-0.3-0.5-1.1-44.3-1.3-51c-0.7-0.1-1.5-0.2-2.3-0.2c0.5,8.9,1.3,49,1.6,51.2
	c0.5,2.6-2.9,3.6-3.8,5.5c-0.2,0.5,0.2,1.4,0.7,1.4c1.6-0.3,3.5-3.1,4-2.9c1.4,0.5,1.4,6,1.9,9.2c0,0.5,1.6,0.2,1.6-0.3
	c-0.2-2.9-1.4-8.8-1.4-8.8c0-1.2,3.6,4.3,6,5.4c0.9,0.3-0.3-1.9-1.4-3.3C47,68.4,46,68.6,44.6,66.5z"/>
</svg>
