<?xml version="1.0" encoding="utf-8"?>
<!-- Generator: Adobe Illustrator 21.1.0, SVG Export Plug-In . SVG Version: 6.00 Build 0)  -->
<svg version="1.1" id="Layer_1" xmlns="http://www.w3.org/2000/svg" xmlns:xlink="http://www.w3.org/1999/xlink" x="0px" y="0px"
	 viewBox="0 0 48 60" style="enable-background:new 0 0 48 60;" xml:space="preserve">
<style type="text/css">
	.st0{fill:#FFFFFF;}
</style>
<g>
	<g>
		<g>
			<path class="st0" d="M33.5,13.3c-1.7,12.5,10.9,22.3,3.2,34.5c-0.6,1,1,1.9,1.6,0.9c2.5-3.9,3.3-7.7,2.9-12.2
				c-0.7-8.1-7.3-13.8-6-22.7C35.6,12.6,33.8,12.1,33.5,13.3L33.5,13.3z"/>
		</g>
	</g>
	<g>
		<g>
			<path class="st0" d="M36.6,48.1c-2.5,2.5-3.8,1.5-4.1-2.8c0.3-1.3,0.7-2.5,1.5-3.6c0.6-1.2,1.5-2.8,1.5-4.2
				c-0.1-3.9-3.5-7.9-5.2-11.2c-0.6-1-2.2-0.1-1.6,0.9c1.2,2.2,2.5,4.4,3.6,6.5c1.7,3.2,1,5.2-0.3,8.3c-1.2,2.5-1.6,4.8-0.9,7.4
				c1,3.5,5.8,1.5,7.1-0.4C38.9,47.9,37.3,47,36.6,48.1L36.6,48.1z"/>
		</g>
	</g>
	<g>
		<g>
			<path class="st0" d="M28.3,25.7c-1.9,3.8-4.1,7.6-7.6,10c-5.4,3.8-11.9-2.5-13.8-7.1c-0.4-1-2.2-0.6-1.7,0.4
				c1.7,4.5,6,9.2,11.2,9.5c7,0.4,10.8-6.5,13.5-11.9C30.5,25.5,28.9,24.6,28.3,25.7L28.3,25.7z"/>
		</g>
	</g>
	<g>
		<g>
			<path class="st0" d="M7,28.8c-1.7-4,3.7-6,5.3-2.6c0.5,1.1,1.1,2.2,1.9,3.1c1.3,1.7,3.1,2.2,4.8,1.5c3.6-1.1,0.8-10.2,0.5-12.9
				c-0.1-1.2-1.7-1.2-1.7,0c0.3,3.1,0.9,6,1.1,9c0.3,1.4-0.5,2.2-2.2,2c-1.3-0.3-2.2-1.9-2.8-3.1S13,23.5,12,22.8
				c-3.6-2.9-8,2.5-6.4,6.8C6.1,31,7.5,30,7,28.8L7,28.8z"/>
		</g>
	</g>
</g>
</svg>
