<?xml version="1.0" encoding="utf-8"?>
<!-- Generator: Adobe Illustrator 21.1.0, SVG Export Plug-In . SVG Version: 6.00 Build 0)  -->
<svg version="1.1" id="Layer_1" xmlns="http://www.w3.org/2000/svg" xmlns:xlink="http://www.w3.org/1999/xlink" x="0px" y="0px"
	 viewBox="0 0 66.7 101.2" style="enable-background:new 0 0 66.7 101.2;" xml:space="preserve">
<style type="text/css">
	.st0{fill:#FFFFFF;}
</style>
<title>Shape</title>
<desc>Created with Sketch.</desc>
<g>
	<g transform="translate(-32.000000, -1875.000000)">
		<path class="st0" d="M63.5,1932.3c0-2.8,0.5-5.6,0.7-8.5s-0.2-5.8-1.7-8.2l-1,6.9c-0.2,1.1-0.3,2.2-0.2,3.2c0.2,1.2,0.6,2.3,1,3.4
			c2.2,7.2-1.6,14.8-2.2,22.4c-0.1,0.6-0.1,1.3,0.1,1.9c0.9,2.6,0.2,5.5-1.9,7.3c-1.3,0.9-2.8,1.5-4.4,1.8l-9.3,2.4
			c-1.1,0.4-2.4,0.5-3.5,0.2c-1.2-0.4-2-1.6-1.8-2.8c0.3-0.8,0.8-1.4,1.5-1.9c2.9-2.3,5.9-4.5,9-6.5c0.7-0.5,0.7-1.6,0.6-2.4
			c-0.7-5.1-1.8-10.2-3.1-15.2c-0.6-2.3-1.3-4.7-1-7c0.6-4.7,0-9.5-1.7-14c-1.5-3.7-3.7-7.2-4-11.3c0-2.6,0.4-5.1,1.3-7.5l2.5-8.6
			c0.1-0.7,0.4-1.3,0.8-1.8c0.9-0.8,2-1.2,3.1-1.1c8.7-0.6,17.4-0.8,26.1-0.6c0.6,0,1.2,0.1,1.8,0.3c0.9,0.6,1.6,1.4,2,2.4
			c2.3,4.6,4.6,9.4,4.8,14.6c0.3,6.6-2.8,12.7-3.8,19.2c-0.1,0.8-0.1,1.6,0,2.4c0.2,0.8,0.5,1.5,0.8,2.2c0.6,2.1,0.7,4.2,0.4,6.3
			l-1.3,17c-0.2,1.3-0.1,2.7,0.4,3.9c0.5,0.9,1.3,1.6,2.1,2.1c1.9,1.3,4,2.3,6.2,3.1c1.2,0.4,2.6,0.8,3.2,2c1,1.8-0.3,4.2-2.1,4.9
			s-3.8,0.3-5.6-0.1l-10.2-2.3c-1.3-0.2-2.5-0.7-3.6-1.5c-1.1-0.9-1.6-2.3-1.2-3.7c0.7-1.9,0.3-4.2-0.3-6.2
			C66.4,1945,63.5,1938.9,63.5,1932.3L63.5,1932.3z M51.6,1960.7c1.4-0.3,2.7-0.8,3.8-1.6c1.2-0.9,1.7-2.5,1.4-3.9
			c-0.2-0.6-0.2-1.2-0.1-1.8c0.5-4.3,1.8-8.5,2.5-12.8c0.7-4.3,0.7-9-1.3-12.8c-1-1.9-0.4-4.2,0-6.3c1-4.5,1.4-9.1,1.3-13.8
			c0.1-1.1-0.2-2.2-0.8-3.2c-0.6-0.5-1.3-1-2-1.4c-0.7-0.5-1.1-1.3-0.8-2.2c0.4-0.9,1.7-0.8,2.6-0.3s1.9,1.1,2.8,0.8
			c0.6-0.3,1-1,1.5-1.5c0.5-0.7,1.4-0.9,2.2-0.6c0.4,0.2,0.6,0.6,0.7,1c0.1,0.4,0,0.8-0.3,1.1c-1,1-1.6,2.4-1.5,3.8
			c0.1,1.4,0.3,2.9,0.8,4.2l2.5,9.2c0.6,1.7,0.9,3.5,0.8,5.3c-0.2,1.5-0.6,3-1,4.5c-0.8,3.8,0,7.6,1,11.3c0.6,2.1,1.2,4.2,2,6.2
			c1.4,3.8,3.5,8,2,11.7c-0.4,1.1,1,2,2.1,2.2l8.2,1.8c1.7,0.5,3.6,0.7,5.4,0.4c0-0.9-0.8-1.5-1.6-1.9l-6.4-3.3
			c-1.3-0.5-2.5-1.5-3.2-2.7c-0.5-1.3-0.6-2.7-0.4-4l1.4-17.6c0.3-1.9,0.2-3.8-0.3-5.6c-0.5-1.4-1.5-2.7-1.9-4.1
			c-1-3.2,0.6-6.6,2-9.7c1.8-4,3.3-8.4,2.6-12.8c-0.3-1.5-0.7-2.9-1.2-4.3c-0.7-1.8-1.4-3.6-2.2-5.4c-0.4-1.2-1.1-2.3-2.1-3.1
			c-1.2-0.7-2.5-1-3.9-0.9c-6.6,0-13.2,0.2-19.8,0.7c-0.9,0-1.7,0.3-2.4,0.8c-0.5,0.6-0.8,1.2-1,1.9l-1.6,5.2c-1,3.1-2,6.3-1.7,9.6
			c0.3,3.7,2.3,6.9,4,10.2c1.7,3.2,3.1,7,2.3,10.6c-0.4,1.3-0.7,2.6-1,3.9c-0.1,1.3,0,2.6,0.4,3.8l4.1,18.8c0.1,0.4,0.1,0.9,0,1.4
			c-0.2,0.4-0.5,0.8-0.9,1l-10.2,7.6c0,0.5,0.7,0.6,1.2,0.5L51.6,1960.7z"/>
	</g>
</g>
</svg>
