<?xml version="1.0" encoding="utf-8"?>
<!-- Generator: Adobe Illustrator 21.1.0, SVG Export Plug-In . SVG Version: 6.00 Build 0)  -->
<svg version="1.1" id="Layer_1" xmlns="http://www.w3.org/2000/svg" xmlns:xlink="http://www.w3.org/1999/xlink" x="0px" y="0px"
	 viewBox="0 0 84 62.5" style="enable-background:new 0 0 84 62.5;" xml:space="preserve">
<style type="text/css">
	.st0{fill:#FFFFFF;}
</style>
<title>Shape_90</title>
<desc>Created with Sketch.</desc>
<g>
	<g transform="translate(-333.000000, -1717.000000)">
		<g transform="translate(333.000000, 1716.200000)">
			<path class="st0" d="M33.6,54.3c-0.7,1-2.4,0.6-3.2-0.3c-0.6-1-1-2.2-1-3.5c-0.9-5.7-3.9-11-8.4-14.6c-0.9-0.7-2.1,0.5-2.6,1.6
				c-1.2,2.6-2,5.3-2.6,8.1c-0.1,0.9-0.4,1.8-1,2.5c-0.7,0.6-2,0.6-2.3-0.2c-0.1-0.4-0.1-0.9,0.1-1.3l2.1-7.3c0.3-1.4,1-2.8,2-3.8
				c0.6-0.5,1.3-0.8,1.9-1.3c0.6-0.4,0.9-1.2,0.8-2l-1.9-5.9c-0.4-1.2-0.5-2.9,0.7-3.2c1.2-0.4,2.1,1.2,2.4,2.5
				c0.7,3.2,1.3,6.5,3.5,9c1.2,1.3,2.8,2.2,3.9,3.6c2.9,3.4,2.4,8.7,4.7,12.4C33.4,51.7,34.5,53.2,33.6,54.3z"/>
			<path class="st0" d="M66.6,35.8l3.3,6.5c0.4,0.6,0.5,1.3,0.3,2c-0.2,0.3-0.6,0.6-1,0.6c-0.4,0.1-0.8,0-1.2-0.3
				c-0.7-0.5-1.2-1.2-1.4-2l-2.7-5.9c-0.3-0.8-0.8-1.5-1.5-2c-1.3-0.8-3.1,0-4.1,1.3c-1.8,2.2-1.9,5.4-1.9,8.2v7
				c0.1,0.9-0.1,1.8-0.6,2.6c-0.6,0.7-1.9,0.7-2.2-0.1c-0.1-0.2-0.1-0.4-0.1-0.6l0.1-12.8c0-0.8,0.1-1.6,0.3-2.4
				c0.6-1,1.3-1.9,2.3-2.5c3.1-2.9,5-6.9,5.1-11.1c-0.1-0.7,0-1.5,0.3-2.2s1.1-1.1,1.9-0.9c0.8,0.3,0.9,1.4,0.9,2.2
				c-0.1,2.2-0.7,4.4-1.6,6.4c-0.4,0.8-0.6,2.2,0.3,2.3C64.7,32.4,65.7,34.2,66.6,35.8z"/>
			<path class="st0" d="M59.2,9.3l4.6,0.9c1.4,0.2,2.8,0.7,4.1,1.4c1.2,0.9,2.2,2,3,3.3c1.4,2.2,2.6,4.4,3.6,6.8
				c1,2.5,1.8,5,2.6,7.6l2.8,9.2c0.2,0.5,0.2,1,0.1,1.5c-0.4,0.9-1.8,0.9-2.5,0.3c-0.7-0.7-1.1-1.7-1.2-2.6c-1.5-7-3.4-14-7-20.2
				c-0.8-1.6-2.1-3-3.6-4.1c-1.4-0.7-2.9-1.2-4.5-1.5l-4.1-0.8C56.4,11,56.4,9.7,57,9.3C57.7,9.1,58.5,9.1,59.2,9.3L59.2,9.3z"/>
			<path class="st0" d="M9.1,28.2L6.4,38.4c-0.1,0.9-0.6,1.8-1.3,2.4c-0.8,0.5-2.2,0-2-0.9L7,25.4c0.7-3,1.7-5.9,3.2-8.7
				c2.4-4,6.4-6.8,10.9-7.8c0.6-0.2,1.2-0.1,1.8,0.2c0.5,0.4,0.4,1.4-0.2,1.4c-3.9,0.4-7.3,3.2-9.4,6.5S10.1,24.3,9.1,28.2z"/>
			<path class="st0" d="M38.4,46c-0.8,0.5-1.8-0.9-1.2-1.7c0.7-0.7,1.8-0.9,2.7-0.6c0-1.1-0.2-2.2-0.6-3.3c-0.4-1.1-1.4-1.8-2.6-1.9
				l-5.6,0.1c-0.8,0-1.9-0.3-1.7-1c0.9-1,2.3-1.4,3.6-1.3c1.3,0.2,2.6,0.2,3.9,0c1.3-0.3,2.6-1.3,2.5-2.6c-0.1-2.3,0-4.6,0.5-6.9
				c0.1-0.6,0.3-1.2,0.7-1.6c0.2-0.2,0.5-0.3,0.8-0.3s0.6,0.2,0.7,0.4c0.1,0.2,0.1,0.5,0.1,0.7l-0.6,8.4c-0.1,1.7,1.9,2.8,3.6,2.7
				c1.7-0.1,3.4-0.8,5.1-0.7c0.5,0,0.9,0.2,1.2,0.6c0.4,0.8-0.7,1.4-1.6,1.6c-2.5,0.5-5.1,0.7-7.6,0.5C42,39.2,42,39.7,42,40
				c0.1,0.8,0.3,1.6,0.6,2.3c0.4,0.7,1.2,1.1,2,1c0.9-0.2,1.9-1.2,2.6-0.6c0.6,0.5,0.2,1.5-0.4,1.9c-0.7,0.3-1.4,0.4-2.2,0.5
				c-0.7,0.2-1.5,0.9-1.3,1.6l0.8,3.1c0.2,0.9,0.4,2.1-0.4,2.7c-0.9,0.7-2.3-0.3-2.6-1.5c-0.3-1.1,0-2.3-0.3-3.5
				C40.6,46.4,39.4,45.4,38.4,46z"/>
			<path class="st0" d="M38.7,19c-0.2,0.7-0.9,1.1-1.6,0.9c-0.7-0.2-1.2-0.5-1.7-1s-1-0.9-1.6-1.2c-0.4-0.1-0.8-0.2-1.3-0.2l-9.1-1
				c-0.3-0.1-0.6-0.3-0.7-0.6c-0.1-0.3-0.1-0.6,0-0.9c0.3-0.6,0.9-0.9,1.5-0.9s1.3,0.1,1.9,0.3c2.8,0.7,5.7,1,8.6,0.9
				c1.4-0.1,2.5,1.1,3.4,2.2C38.4,17.9,38.7,18.5,38.7,19L38.7,19z"/>
			<path class="st0" d="M51.3,12.5c0.5-0.3,1-0.4,1.5-0.5s1.1,0.2,1.3,0.7c-1.1,1.1-2.5,1.8-4,2c-0.8,0.1-1.6,0.3-2.4,0.7
				c-0.8,0.3-1.4,1-1.6,1.9c-0.1,0.7-0.7,1.2-1.3,1.3c-0.7,0.1-1.3-0.3-1.6-0.9c-0.3-1,0.1-2,1-2.6C46.2,13.3,49,13.5,51.3,12.5z"/>
			<path class="st0" d="M27.4,31.7c0.5-0.4,1.1-0.5,1.7-0.4c0.6,0.2,0.9,0.9,0.7,1.5c-0.2,0.6-0.9,0.8-1.6,0.9
				c-0.3,0.1-0.5,0.1-0.8,0c-0.4-0.1-0.7-0.6-0.7-1C26.9,32.3,27.1,32,27.4,31.7z"/>
			<path class="st0" d="M53.3,31.5c-0.2,0.3-0.5,0.5-0.8,0.6c-0.4,0.2-0.9,0.3-1.4,0.2s-0.8-0.6-0.8-1.1c0.1-0.2,0.2-0.4,0.3-0.5
				c0.4-0.5,1.1-0.8,1.8-0.7c0.3,0.1,0.6,0.3,0.8,0.6C53.4,30.9,53.4,31.2,53.3,31.5z"/>
		</g>
	</g>
</g>
</svg>
