<?xml version="1.0" encoding="utf-8"?>
<!-- Generator: Adobe Illustrator 21.1.0, SVG Export Plug-In . SVG Version: 6.00 Build 0)  -->
<svg version="1.1" id="Layer_1" xmlns="http://www.w3.org/2000/svg" xmlns:xlink="http://www.w3.org/1999/xlink" x="0px" y="0px"
	 viewBox="0 0 101.7 81" style="enable-background:new 0 0 101.7 81;" xml:space="preserve">
<style type="text/css">
	.st0{fill:#FFFFFF;}
</style>
<title>Shape_9</title>
<desc>Created with Sketch.</desc>
<path class="st0" d="M95.3,21.5c-1.3,0.1-2.6-0.1-3.7-0.8c0.4-1.5,3.1-2.1,2.6-3.6c-0.3-0.7-1-1.1-1.8-0.9c-0.7,0.2-1.3,0.6-1.8,1.1
	c0.5-0.6,0.5-1.5,0-2.2s-1.3-0.9-2.1-0.7c-0.8,0.3-1.3,1-1.3,1.8c0.2,3.7-1.5,7.2-4.5,9.3l1.1-9c0.1-0.4,0.1-0.9-0.1-1.4
	c-0.4-0.9-1.8-0.8-2.5-0.1c-0.6,0.8-0.9,1.7-0.9,2.7l-1.1,9.2C79,29,77.4,30.5,76,31.8l-5.8,5.1c-1.9-3.4-5.5-6.4-8.1-8.2
	c-1.5-1.1-7-1.1-8.3-0.5c-3.4,1.5-10.4,0.6-11.3,0.7c-1.6,0.2-4.1,1.8-4.7,2.1c-3.6,2-6.1,5.8-7.8,9.8l-4.5-4
	c-1.5-1.3-3-2.8-3.3-4.7l-1.1-9.2c0-1-0.3-1.9-0.9-2.7c-0.7-0.7-2.1-0.8-2.5,0.1c-0.2,0.4-0.2,0.9-0.1,1.4l1.1,9
	c-3-2.2-4.6-5.7-4.5-9.3c0-0.8-0.5-1.5-1.3-1.8s-1.6,0-2.1,0.7c-0.5,0.6-0.5,1.5,0,2.2C10.3,22,9.7,21.6,9,21.4s-1.5,0.2-1.8,0.9
	c-0.4,1.5,2.2,2.1,2.6,3.6c-1.1,0.6-2.4,0.9-3.7,0.8c-1.2-0.1-1.5,1.8-0.6,2.6s2.3,0.5,3.4,0.1s2.3-0.9,3.4-0.5
	c0.6,0.3,1.2,0.6,1.7,1.1l13.6,12c0.5,0.4,1,1,1.4,1.6c-0.2,0.5-0.3,1-0.4,1.5c-1,3.7-1,7.6,0.2,11.3c1.8,5,6.1,9,11,11.1
	c5,2,10.5,2.7,15.8,2c2.8-0.2,5.5-0.9,8-2c1.6-0.8,3-1.9,4.2-3.2c3.1-3,5.2-6.8,6.1-11s0.2-8.6-2-12.3c-0.8-1.4,0.5-3,1.7-4.1
	l13.6-12c0.5-0.5,1-0.9,1.7-1.1c1.1-0.3,2.3,0.2,3.4,0.5c1.1,0.4,2.5,0.6,3.4-0.1C96.8,23.4,96.4,21.4,95.3,21.5z M41.8,31.6
	c0.5-0.6,1.4-0.3,2.2-0.1c4.2,1.1,8.7,0.6,12.5-1.6c0.9,0.9,1,2.3,0.4,3.3l0,0c-0.8,1-1.9,1.7-3.1,1.8c-1.9,0.5-3.9,0.8-5.9,0.9
	c-1.2,0.1-2.4-0.1-3.5-0.4c-1.1-0.4-2.1-1.2-2.6-2.2C41.4,32.8,41.5,32.1,41.8,31.6z M51.8,38.3c-2.7,3.8-4.8,7.9-6.3,12.3
	c-0.3,0.6-1,1-1.7,0.8s-1.2-0.8-1.4-1.5s-0.3-1.3-0.2-2c0.2-2.8,0.9-5.6,2-8.2c0.1-0.4,0.3-0.7,0.6-0.9s0.6-0.2,0.9-0.2l0,0
	L51.8,38.3z M50.9,44.5l1.4-2.6c0.1-0.2,0.3-0.4,0.5-0.5s0.5,0.1,0.4,0.4c0,1.3,0.4,2.6,1.1,3.7c0.2,0.2,0.3,0.5,0.3,0.7
	s-0.1,0.4-0.3,0.6c-0.5,0.7-1.3,1.1-2.1,1.2c-0.9,0.1-1.7-0.5-1.9-1.3C50.3,45.9,50.5,45.1,50.9,44.5z M62.8,64.7
	c-2.2,0.9-4.5,1.5-6.8,1.6c-5.3,0.5-10.8-0.1-15.5-2.5s-8.6-6.9-9.4-12.1C30.3,46.1,33,40.5,36.4,36c0.2-0.4,0.6-0.7,1-0.9
	c0.2-0.1,0.4-0.1,0.6,0c0.2,0.1,0.4,0.3,0.4,0.5c0.2,0.8,1.1,1.2,1.8,1.5s1.5,1.1,1.2,1.8c-1.9,4.1-2.7,8.6-2.3,13.2
	c0,0.4,0.1,0.9,0.4,1.2c0.3,0.3,0.7,0.5,1.1,0.5l2.4,0.6c1.2,0.3,2.6,0.6,3.5-0.4c1-1,0.8-2.9,2.1-3.4c0.3,1,1.3,1.6,2.3,1.3
	s1.8-0.9,2.5-1.6c0.6-0.8,1.4-1.4,2.3-1.9c1-0.4,2.2-0.5,2.6-1.5c0.3-0.8-0.3-1.7-0.8-2.4l0,0c-1.2-1.9-1.9-4-2-6.2
	c0-0.5,0.1-1.1,0.6-1.3c2-0.6,3.7-2.1,4.4-4.1c0.2-0.5,0.9-0.2,1.3,0.1c4.6,4.3,8.2,9.9,8.8,16.1C71.4,55.2,68.4,62,62.8,64.7z"/>
</svg>
